<svg width="512" height="512" viewBox="0 0 512 512" fill="none" xmlns="http://www.w3.org/2000/svg">
<g clip-path="url(#clip0_217_358)">
<path d="M409.484 129.358L404.667 195.943L390.79 388.052L384.46 475.534C382.973 496.098 366.516 512.002 346.716 512.002H165.282C145.483 512.002 129.025 496.099 127.538 475.534L121.209 388.052L107.332 195.943L102.515 129.358L256 112.533L409.484 129.358Z" fill="#FCFCFC"/>
<path d="M422.189 66.2653C418.411 66.2653 415.032 63.9157 413.717 60.3739L400.652 25.194C398.826 20.2763 394.278 16.8933 389.044 16.5581L130.794 0.0279065C124.938 -0.347522 119.53 3.16335 117.486 8.66379L98.2818 60.3739C96.9668 63.9157 93.5869 66.2653 89.8099 66.2653C82.5881 66.2653 76.7339 72.1195 76.7339 79.3413V116.046C76.7339 123.397 82.6943 129.358 90.0461 129.358H421.953C429.305 129.358 435.265 123.397 435.265 116.046V79.3413C435.265 72.1195 429.411 66.2653 422.189 66.2653Z" fill="#A48466"/>
<path d="M414.925 204.431L402.54 380.674C402.248 384.83 398.792 388.051 394.626 388.051H117.373C113.207 388.051 109.752 384.829 109.459 380.674L97.074 204.431C96.7512 199.843 100.387 195.942 104.988 195.942H407.012C411.612 195.942 415.248 199.843 414.925 204.431V204.431Z" fill="#C9A381"/>
<path d="M313 276.291V308.021C313 333.657 294.875 355.212 270.266 361.476L258.447 358.131L242.96 362C217.231 356.501 198 334.422 198 308.021V276.291C198 250.655 216.125 229.1 240.734 222.836L251.938 225.391L266.493 222C277.958 224.14 288.214 229.553 296.157 237.192C306.56 247.197 313 261.014 313 276.291V276.291Z" fill="#A48466"/>
<path d="M270.265 361.162C265.565 362.364 260.613 363 255.5 363C251.197 363 246.997 362.548 242.959 361.685C243.932 360.554 271.577 327.157 246.997 298.78C222.506 270.487 230.095 240.399 240.734 222.838C245.435 221.636 250.386 221 255.5 221C259.257 221 262.927 221.339 266.493 222.004V222.018C265.432 223.248 239.452 256.871 264.002 285.22C288.494 313.499 280.905 343.601 270.265 361.162V361.162Z" fill="#9E7E60"/>
<path d="M245.671 306.536C245.127 303.47 245.603 300.311 247.026 297.542C248.45 294.773 250.743 292.547 253.553 291.207C256.363 289.866 259.535 289.485 262.583 290.12C265.631 290.756 268.386 292.375 270.426 294.727C271.511 291.807 273.524 289.324 276.156 287.658C278.789 285.993 281.895 285.237 284.998 285.508C288.102 285.779 291.03 287.061 293.334 289.157C295.639 291.253 297.191 294.048 297.754 297.111L297.791 297.317C300.229 311.589 287.786 325.732 276.412 327.79C265.039 329.848 248.426 320.961 245.708 306.741L245.671 306.536V306.536Z" fill="#CEAD8F"/>
<path fill-rule="evenodd" clip-rule="evenodd" d="M271.732 317.623L274.705 315.41L282.892 326.405C282.892 326.405 282.892 326.405 282.892 326.405C284.295 328.288 285.526 330.292 286.571 332.395L290.489 340.28L294.635 338.618L296.015 342.058L288.693 344.994L283.252 334.044C283.252 334.044 283.252 334.044 283.252 334.044C282.305 332.14 281.19 330.324 279.92 328.619L271.732 317.623Z" fill="#CEAD8F"/>
<path d="M267.226 344.745V346.726H264.568L265.318 344.179L267.226 344.745ZM265.35 315.539L270.313 324.274L266.866 326.229L261.914 317.493L265.35 315.539ZM271.705 336.629L269.117 345.312L265.32 344.186L267.909 335.506L271.705 336.629V336.629ZM267.218 342.764H273.408V346.726H267.218V342.764ZM270.313 324.274C271.367 326.133 272.034 328.186 272.275 330.309C272.516 332.432 272.325 334.582 271.714 336.629L267.918 335.504C268.376 333.967 268.519 332.354 268.338 330.762C268.157 329.169 267.656 327.629 266.866 326.234L270.313 324.274V324.274Z" fill="#CEAD8F"/>
<path d="M242.278 242.428L249.954 239.791L252.06 247.224L260.167 248.504L257.964 255.905L264.271 260.841L258.456 266.214L261.278 273.387L253.323 275.355L251.952 282.93L244.032 280.871L238.749 286.765L232.997 281.33L225.321 283.967L223.215 276.534L215.108 275.254L217.307 267.848L211 262.912L216.815 257.539L213.992 250.366L221.947 248.397L223.317 240.823L231.235 242.893L236.518 237L242.278 242.428Z" fill="#CEAD8F"/>
<path fill-rule="evenodd" clip-rule="evenodd" d="M228.466 343.262V274.927H232.204V347H225.04V343.262H228.466ZM236.699 278.555H240.437V343.262H243.863V347H236.699V278.555Z" fill="#CEAD8F"/>
</g>
<defs>
<clipPath id="clip0_217_358">
<rect width="512" height="512" fill="white"/>
</clipPath>
</defs>
</svg>
