<svg width="400" height="400" viewBox="0 0 400 400" fill="none" xmlns="http://www.w3.org/2000/svg">
<path d="M80.686 313.653H153.633C162.87 313.653 170.358 306.669 170.358 298.055C170.358 289.44 162.87 282.457 153.633 282.457H80.686C65.117 282.457 52.451 270.644 52.451 256.124V167.528C52.451 153.008 65.118 141.196 80.686 141.196H153.633C162.87 141.196 170.358 134.212 170.358 125.598C170.358 116.983 162.87 110 153.633 110H80.686C46.672 110 19 135.807 19 167.529V256.125C18.999 287.845 46.671 313.653 80.686 313.653V313.653Z" fill="#A48466"/>
<path d="M139.503 390.206H338.689C361.782 390.206 380.502 371.486 380.502 348.393V30.4818C380.502 24.4778 375.635 19.6108 369.631 19.6108H108.561C102.557 19.6108 97.6901 24.4778 97.6901 30.4818V348.393C97.6901 371.486 116.41 390.206 139.503 390.206V390.206Z" fill="#A48466"/>
<path d="M192.995 70.0098L150.525 116.257C148.258 118.726 147 121.955 147 125.307V207.059C147 211.678 150.744 215.422 155.363 215.422H230.627C235.246 215.422 238.99 211.678 238.99 207.059V125.307C238.99 121.955 237.732 118.725 235.465 116.257L192.995 70.0098Z" fill="#C9A381"/>
<path d="M162.25 151.026C161.629 147.532 162.172 143.931 163.794 140.776C165.417 137.62 168.03 135.084 171.232 133.556C174.435 132.028 178.05 131.593 181.524 132.318C184.997 133.043 188.137 134.887 190.462 137.568C191.698 134.24 193.992 131.41 196.992 129.512C199.992 127.614 203.532 126.753 207.069 127.061C210.606 127.37 213.943 128.831 216.569 131.22C219.195 133.609 220.965 136.794 221.606 140.285L221.648 140.52C224.426 156.785 210.246 172.902 197.284 175.248C184.323 177.594 165.389 167.466 162.292 151.26L162.25 151.026V151.026Z" fill="#D7B190"/>
<path fill-rule="evenodd" clip-rule="evenodd" d="M191.95 163.661L195.338 161.139L204.668 173.669L204.669 173.67C206.267 175.815 207.67 178.1 208.861 180.496L213.327 189.483L218.052 187.588L219.624 191.508L211.28 194.855L205.079 182.376C204 180.205 202.729 178.136 201.281 176.193L191.95 163.661Z" fill="#D7B190"/>
<path d="M186.814 194.572V196.829H183.786L184.641 193.926L186.814 194.572ZM184.677 161.287L190.333 171.242L186.404 173.469L180.761 163.514L184.677 161.287ZM191.919 185.322L188.969 195.218L184.643 193.935L187.593 184.042L191.919 185.322ZM186.806 192.315H193.86V196.829H186.806V192.315ZM190.333 171.242C191.534 173.36 192.295 175.7 192.569 178.119C192.844 180.539 192.626 182.989 191.93 185.322L187.603 184.04C188.125 182.289 188.288 180.451 188.082 178.635C187.876 176.82 187.305 175.065 186.404 173.476L190.333 171.242Z" fill="#D7B190"/>
<rect x="190" y="14" width="6" height="70" rx="3" fill="black"/>
</svg>
