<svg width="380" height="380" viewBox="0 0 380 380" fill="none" xmlns="http://www.w3.org/2000/svg">
<path d="M90 10C77.625 10 67.5 20.125 67.5 32.5V347.5C67.5 359.875 77.625 370 90 370H315C327.375 370 337.5 359.875 337.5 347.5V100L247.5 10H90Z" fill="white"/>
<path d="M270 100H337.5L247.5 10V77.5C247.5 89.875 257.625 100 270 100Z" fill="#EEEEEE"/>
<path d="M292.5 302.5C292.5 308.688 287.438 313.75 281.25 313.75H33.75C27.5625 313.75 22.5 308.688 22.5 302.5V190C22.5 183.812 27.5625 178.75 33.75 178.75H281.25C287.438 178.75 292.5 183.812 292.5 190V302.5Z" fill="#84BD5A"/>
<path d="M293 301.75C293 307.938 287.938 313 281.75 313H34.25C28.0625 313 23 307.938 23 301.75V189.25C23 183.062 28.0625 178 34.25 178H281.75C287.938 178 293 183.062 293 189.25V301.75Z" fill="#2667A7"/>
<path d="M134.14 239.273H119.72C119.618 238.08 119.345 236.997 118.902 236.026C118.475 235.054 117.879 234.219 117.112 233.52C116.362 232.804 115.45 232.259 114.376 231.884C113.302 231.491 112.083 231.295 110.72 231.295C108.333 231.295 106.314 231.875 104.66 233.034C103.024 234.193 101.779 235.855 100.927 238.02C100.092 240.185 99.6744 242.784 99.6744 245.818C99.6744 249.023 100.1 251.707 100.953 253.872C101.822 256.02 103.075 257.639 104.711 258.73C106.348 259.804 108.316 260.341 110.618 260.341C111.93 260.341 113.106 260.179 114.146 259.855C115.186 259.514 116.089 259.028 116.856 258.398C117.623 257.767 118.245 257.009 118.723 256.122C119.217 255.219 119.549 254.205 119.72 253.08L134.14 253.182C133.97 255.398 133.348 257.656 132.274 259.957C131.2 262.241 129.674 264.355 127.697 266.298C125.737 268.224 123.308 269.776 120.41 270.952C117.512 272.128 114.146 272.716 110.311 272.716C105.504 272.716 101.191 271.685 97.3732 269.622C93.5721 267.56 90.5636 264.526 88.3477 260.52C86.1488 256.514 85.0494 251.614 85.0494 245.818C85.0494 239.989 86.1744 235.08 88.4244 231.091C90.6744 227.085 93.7085 224.06 97.5266 222.014C101.345 219.952 105.606 218.92 110.311 218.92C113.618 218.92 116.66 219.372 119.439 220.276C122.217 221.179 124.654 222.5 126.751 224.239C128.848 225.96 130.535 228.082 131.814 230.605C133.092 233.128 133.868 236.017 134.14 239.273ZM168.817 236C168.681 234.295 168.042 232.966 166.9 232.011C165.775 231.057 164.061 230.58 161.76 230.58C160.294 230.58 159.093 230.759 158.155 231.116C157.235 231.457 156.553 231.926 156.11 232.523C155.667 233.119 155.436 233.801 155.419 234.568C155.385 235.199 155.496 235.77 155.752 236.281C156.025 236.776 156.451 237.227 157.03 237.636C157.61 238.028 158.351 238.386 159.255 238.71C160.158 239.034 161.232 239.324 162.476 239.58L166.772 240.5C169.669 241.114 172.15 241.923 174.212 242.929C176.275 243.935 177.962 245.119 179.275 246.483C180.587 247.83 181.55 249.347 182.164 251.034C182.794 252.722 183.118 254.562 183.135 256.557C183.118 260 182.257 262.915 180.553 265.301C178.848 267.688 176.411 269.503 173.24 270.747C170.087 271.991 166.294 272.614 161.863 272.614C157.311 272.614 153.34 271.94 149.948 270.594C146.573 269.247 143.948 267.176 142.073 264.381C140.215 261.568 139.277 257.972 139.26 253.591H152.76C152.846 255.193 153.246 256.54 153.962 257.631C154.678 258.722 155.684 259.548 156.979 260.111C158.292 260.673 159.851 260.955 161.658 260.955C163.175 260.955 164.445 260.767 165.468 260.392C166.49 260.017 167.266 259.497 167.794 258.832C168.323 258.168 168.596 257.409 168.613 256.557C168.596 255.756 168.331 255.057 167.82 254.46C167.326 253.847 166.507 253.301 165.365 252.824C164.223 252.33 162.681 251.869 160.738 251.443L155.522 250.318C150.885 249.312 147.229 247.634 144.553 245.281C141.894 242.912 140.573 239.682 140.59 235.591C140.573 232.267 141.459 229.361 143.249 226.872C145.056 224.366 147.553 222.415 150.74 221.017C153.945 219.619 157.618 218.92 161.76 218.92C165.988 218.92 169.644 219.628 172.729 221.043C175.814 222.457 178.192 224.452 179.863 227.026C181.55 229.582 182.402 232.574 182.419 236H168.817ZM216.77 236C216.634 234.295 215.995 232.966 214.853 232.011C213.728 231.057 212.015 230.58 209.713 230.58C208.248 230.58 207.046 230.759 206.108 231.116C205.188 231.457 204.506 231.926 204.063 232.523C203.62 233.119 203.39 233.801 203.373 234.568C203.338 235.199 203.449 235.77 203.705 236.281C203.978 236.776 204.404 237.227 204.983 237.636C205.563 238.028 206.304 238.386 207.208 238.71C208.111 239.034 209.185 239.324 210.429 239.58L214.725 240.5C217.623 241.114 220.103 241.923 222.165 242.929C224.228 243.935 225.915 245.119 227.228 246.483C228.54 247.83 229.503 249.347 230.117 251.034C230.748 252.722 231.071 254.562 231.088 256.557C231.071 260 230.211 262.915 228.506 265.301C226.801 267.688 224.364 269.503 221.194 270.747C218.04 271.991 214.248 272.614 209.816 272.614C205.265 272.614 201.293 271.94 197.901 270.594C194.526 269.247 191.901 267.176 190.026 264.381C188.168 261.568 187.23 257.972 187.213 253.591H200.713C200.799 255.193 201.199 256.54 201.915 257.631C202.631 258.722 203.637 259.548 204.932 260.111C206.245 260.673 207.804 260.955 209.611 260.955C211.128 260.955 212.398 260.767 213.421 260.392C214.444 260.017 215.219 259.497 215.748 258.832C216.276 258.168 216.549 257.409 216.566 256.557C216.549 255.756 216.284 255.057 215.773 254.46C215.279 253.847 214.461 253.301 213.319 252.824C212.176 252.33 210.634 251.869 208.691 251.443L203.475 250.318C198.838 249.312 195.182 247.634 192.506 245.281C189.847 242.912 188.526 239.682 188.543 235.591C188.526 232.267 189.412 229.361 191.202 226.872C193.009 224.366 195.506 222.415 198.694 221.017C201.898 219.619 205.571 218.92 209.713 218.92C213.941 218.92 217.597 219.628 220.682 221.043C223.767 222.457 226.145 224.452 227.816 227.026C229.503 229.582 230.355 232.574 230.373 236H216.77Z" fill="white"/>
</svg>
