<svg width="380" height="380" viewBox="0 0 380 380" fill="none" xmlns="http://www.w3.org/2000/svg">
<g clip-path="url(#clip0_209_39)">
<g clip-path="url(#clip1_209_39)">
<path d="M190 322C174.65 322 40 320.95 40 284.5V159.5H340V284.5C340 320.95 205.35 322 190 322Z" fill="#5AA2DB"/>
<path d="M190 209.5C174.65 209.5 40 208.45 40 172V59.5H340V172C340 208.45 205.35 209.5 190 209.5Z" fill="#4F94CC"/>
<path d="M190 97C174.65 97 40 95.95 40 59.5C40 23.05 174.65 22 190 22C205.35 22 340 23.05 340 59.5C340 95.95 205.35 97 190 97Z" fill="#5AA2DB"/>
</g>
<g clip-path="url(#clip2_209_39)">
<path d="M336.5 183H151.5C136.33 183 124 195.33 124 210.5V335.5C124 350.67 136.33 363 151.5 363H336.5C351.67 363 364 350.67 364 335.5V210.5C364 195.33 351.67 183 336.5 183Z" fill="#2667A7"/>
<path d="M249 313H239C225.21 313 214 301.78 214 288V258C214 244.22 225.21 233 239 233H249C262.79 233 274 244.22 274 258V288C274 301.78 262.79 313 249 313ZM239 253C236.25 253 234 255.24 234 258V288C234 290.76 236.25 293 239 293H249C251.75 293 254 290.76 254 288V258C254 255.24 251.75 253 249 253H239Z" fill="white"/>
<path d="M264 313C261.44 313 258.88 312.02 256.93 310.07L241.93 295.07C238.02 291.16 238.02 284.84 241.93 280.93C245.84 277.02 252.16 277.02 256.07 280.93L271.07 295.93C274.98 299.84 274.98 306.16 271.07 310.07C269.12 312.02 266.56 313 264 313V313Z" fill="white"/>
<path d="M169 263C182.79 263 194 274.22 194 288C194 301.78 182.79 313 169 313H154C148.47 313 144 308.52 144 303C144 297.48 148.47 293 154 293H169C171.75 293 174 290.76 174 288C174 285.24 171.75 283 169 283C155.21 283 144 271.78 144 258C144 244.22 155.21 233 169 233H184C189.53 233 194 237.48 194 243C194 248.52 189.53 253 184 253H169C166.25 253 164 255.24 164 258C164 260.76 166.25 263 169 263Z" fill="white"/>
<path d="M334 313H304C298.47 313 294 308.52 294 303V243C294 237.48 298.47 233 304 233C309.53 233 314 237.48 314 243V293H334C339.53 293 344 297.48 344 303C344 308.52 339.53 313 334 313Z" fill="white"/>
</g>
</g>
<defs>
<clipPath id="clip0_209_39">
<rect width="380" height="380" fill="white"/>
</clipPath>
<clipPath id="clip1_209_39">
<rect width="300" height="300" fill="white" transform="translate(40 22)"/>
</clipPath>
<clipPath id="clip2_209_39">
<rect width="240" height="240" fill="white" transform="translate(124 153)"/>
</clipPath>
</defs>
</svg>
