<svg width="360" height="360" viewBox="0 0 360 360" fill="none" xmlns="http://www.w3.org/2000/svg">
<path d="M210 180C210 159.99 242.46 146.31 260 120C280 90 280 20 280 20H80C80 20 80 90 100 120C117.54 146.31 150 159.99 150 180C150 200.01 117.54 213.69 100 240C80 270 80 340 80 340H280C280 340 280 270 260 240C242.46 213.69 210 200.01 210 180Z" fill="#FFE8B6"/>
<path d="M209.99 240C200 240 189.42 230 189.42 220C190 202.87 190 191.54 190 180C190 147.8 220.34 134.39 239 110H121C139.65 134.39 170 147.8 170 180C170 191.55 170 202.89 170.58 220C170.58 230 160 240 150 240C130 240 114.05 257.84 110 270C100 300 100 340 100 340H260C260 340 260 300 250 270C245.95 257.84 229.99 240 209.99 240Z" fill="#FFAC33"/>
<path d="M300 340C300 351.04 291.04 360 280 360H80C68.96 360 60 351.04 60 340C60 328.96 68.96 320 80 320H280C291.04 320 300 328.96 300 340ZM300 20C300 31.04 291.04 40 280 40H80C68.96 40 60 31.04 60 20C60 8.96 68.96 0 80 0H180H280C291.04 0 300 8.96 300 20Z" fill="#4F94CC"/>
</svg>
