<svg width="380" height="380" viewBox="0 0 380 380" fill="none" xmlns="http://www.w3.org/2000/svg">
<g clip-path="url(#clip0_209_10)">
<rect width="380" height="380" fill="#B20101"/>
<path d="M325.975 149.131H136.353L146.248 102.832H261.82L272.422 53H106.308L54 299.691H104.188L127.157 191.894H247.536L142.935 295.449L161.313 327.962C169.793 322.309 183.577 321.6 193.121 321.6C210.088 321.6 226.698 327.258 244.011 327.258C259.887 327.258 276.139 326.197 302.649 313.472L311.913 270.002C293.884 277.421 267.21 284.492 244.011 284.492C234.474 284.492 225.637 282.372 216.448 280.959L317.844 182.355L325.975 149.131V149.131Z" fill="white"/>
</g>
<defs>
<clipPath id="clip0_209_10">
<rect width="380" height="380" fill="white"/>
</clipPath>
</defs>
</svg>
