<svg width="380" height="380" viewBox="0 0 380 380" fill="none" xmlns="http://www.w3.org/2000/svg">
<path d="M90 10C77.625 10 67.5 20.125 67.5 32.5V347.5C67.5 359.875 77.625 370 90 370H315C327.375 370 337.5 359.875 337.5 347.5V100L247.5 10H90Z" fill="white"/>
<path d="M270 100H337.5L247.5 10V77.5C247.5 89.875 257.625 100 270 100Z" fill="#EEEEEE"/>
<path d="M292.5 302.5C292.5 308.688 287.438 313.75 281.25 313.75H33.75C27.5625 313.75 22.5 308.688 22.5 302.5V190C22.5 183.812 27.5625 178.75 33.75 178.75H281.25C287.438 178.75 292.5 183.812 292.5 190V302.5Z" fill="#CAE59D"/>
<path d="M55.0547 272V219.636H69.2706V240.091H88.0888V219.636H102.305V272H88.0888V251.545H69.2706V272H55.0547ZM107.623 231.091V219.636H153.134V231.091H137.384V272H123.373V231.091H107.623ZM158.484 219.636H176.178L188.348 249.295H188.962L201.132 219.636H218.825V272H204.916V241.727H204.507L192.848 271.591H184.462L172.803 241.523H172.393V272H158.484V219.636ZM225.562 272V219.636H239.778V260.545H260.949V272H225.562Z" fill="black"/>
</svg>
