<svg width="380" height="380" viewBox="0 0 380 380" fill="none" xmlns="http://www.w3.org/2000/svg">
<path d="M90 10C77.625 10 67.5 20.125 67.5 32.5V347.5C67.5 359.875 77.625 370 90 370H315C327.375 370 337.5 359.875 337.5 347.5V100L247.5 10H90Z" fill="white"/>
<path d="M270 100H337.5L247.5 10V77.5C247.5 89.875 257.625 100 270 100Z" fill="#EEEEEE"/>
<path d="M292.5 302.5C292.5 308.688 287.438 313.75 281.25 313.75H33.75C27.5625 313.75 22.5 308.688 22.5 302.5V190C22.5 183.812 27.5625 178.75 33.75 178.75H281.25C287.438 178.75 292.5 183.812 292.5 190V302.5Z" fill="#84BD5A"/>
<path d="M293 301.75C293 307.938 287.938 313 281.75 313H34.25C28.0625 313 23 307.938 23 301.75V189.25C23 183.062 28.0625 178 34.25 178H281.75C287.938 178 293 183.062 293 189.25V301.75Z" fill="#5AA2DB"/>
<path d="M109.857 219.636H123.868V255.534C123.851 258.943 122.99 261.943 121.286 264.534C119.598 267.108 117.263 269.119 114.28 270.568C111.314 272 107.897 272.716 104.027 272.716C100.669 272.716 97.6012 272.136 94.8228 270.977C92.0444 269.801 89.8285 267.96 88.1751 265.455C86.5217 262.932 85.7035 259.659 85.7205 255.636H99.9364C99.9876 256.949 100.209 258.057 100.601 258.96C101.01 259.864 101.573 260.545 102.289 261.006C103.022 261.449 103.908 261.67 104.948 261.67C106.005 261.67 106.891 261.44 107.607 260.98C108.34 260.52 108.894 259.838 109.269 258.935C109.644 258.014 109.84 256.881 109.857 255.534V219.636ZM130.605 272V219.636H153.208C157.094 219.636 160.495 220.403 163.409 221.938C166.324 223.472 168.591 225.628 170.211 228.406C171.83 231.185 172.64 234.432 172.64 238.148C172.64 241.898 171.804 245.145 170.134 247.889C168.48 250.634 166.154 252.747 163.154 254.23C160.171 255.713 156.685 256.455 152.696 256.455H139.196V245.409H149.833C151.503 245.409 152.926 245.119 154.103 244.54C155.296 243.943 156.208 243.099 156.838 242.009C157.486 240.918 157.81 239.631 157.81 238.148C157.81 236.648 157.486 235.369 156.838 234.312C156.208 233.239 155.296 232.42 154.103 231.858C152.926 231.278 151.503 230.989 149.833 230.989H144.821V272H130.605ZM211.861 236.92C211.64 236.017 211.29 235.224 210.813 234.543C210.336 233.844 209.739 233.256 209.023 232.778C208.324 232.284 207.506 231.918 206.569 231.679C205.648 231.423 204.634 231.295 203.526 231.295C201.14 231.295 199.103 231.866 197.415 233.009C195.745 234.151 194.466 235.795 193.58 237.943C192.711 240.091 192.276 242.682 192.276 245.716C192.276 248.784 192.694 251.409 193.529 253.591C194.364 255.773 195.608 257.443 197.262 258.602C198.915 259.761 200.969 260.341 203.424 260.341C205.588 260.341 207.387 260.026 208.819 259.395C210.267 258.764 211.35 257.869 212.066 256.71C212.782 255.551 213.14 254.187 213.14 252.619L215.594 252.875H203.628V242.75H226.844V250.011C226.844 254.784 225.83 258.866 223.801 262.259C221.79 265.634 219.012 268.224 215.466 270.031C211.938 271.821 207.89 272.716 203.321 272.716C198.225 272.716 193.75 271.634 189.898 269.469C186.046 267.304 183.037 264.219 180.873 260.213C178.725 256.207 177.651 251.443 177.651 245.92C177.651 241.591 178.307 237.756 179.62 234.415C180.949 231.074 182.79 228.253 185.142 225.952C187.495 223.634 190.213 221.886 193.299 220.71C196.384 219.517 199.691 218.92 203.219 218.92C206.321 218.92 209.202 219.364 211.861 220.25C214.537 221.119 216.898 222.364 218.944 223.983C221.006 225.585 222.668 227.486 223.929 229.685C225.191 231.884 225.958 234.295 226.23 236.92H211.861Z" fill="white"/>
</svg>
