<svg width="380" height="380" viewBox="0 0 380 380" fill="none" xmlns="http://www.w3.org/2000/svg">
<path d="M90 10C77.625 10 67.5 20.125 67.5 32.5V347.5C67.5 359.875 77.625 370 90 370H315C327.375 370 337.5 359.875 337.5 347.5V100L247.5 10H90Z" fill="white"/>
<path d="M270 100H337.5L247.5 10V77.5C247.5 89.875 257.625 100 270 100Z" fill="#EEEEEE"/>
<path d="M292.5 302.5C292.5 308.688 287.438 313.75 281.25 313.75H33.75C27.5625 313.75 22.5 308.688 22.5 302.5V190C22.5 183.812 27.5625 178.75 33.75 178.75H281.25C287.438 178.75 292.5 183.812 292.5 190V302.5Z" fill="#84BD5A"/>
<path d="M293 301.75C293 307.938 287.938 313 281.75 313H34.25C28.0625 313 23 307.938 23 301.75V189.25C23 183.062 28.0625 178 34.25 178H281.75C287.938 178 293 183.062 293 189.25V301.75Z" fill="#FFE8B6"/>
<path d="M137.314 219.636H151.325V255.534C151.308 258.943 150.447 261.943 148.743 264.534C147.055 267.108 144.72 269.119 141.737 270.568C138.771 272 135.354 272.716 131.484 272.716C128.126 272.716 125.058 272.136 122.28 270.977C119.501 269.801 117.286 267.96 115.632 265.455C113.979 262.932 113.161 259.659 113.178 255.636H127.393C127.445 256.949 127.666 258.057 128.058 258.96C128.467 259.864 129.03 260.545 129.746 261.006C130.479 261.449 131.365 261.67 132.405 261.67C133.462 261.67 134.348 261.44 135.064 260.98C135.797 260.52 136.351 259.838 136.726 258.935C137.101 258.014 137.297 256.881 137.314 255.534V219.636ZM186.29 236C186.153 234.295 185.514 232.966 184.372 232.011C183.247 231.057 181.534 230.58 179.233 230.58C177.767 230.58 176.565 230.759 175.628 231.116C174.707 231.457 174.026 231.926 173.582 232.523C173.139 233.119 172.909 233.801 172.892 234.568C172.858 235.199 172.969 235.77 173.224 236.281C173.497 236.776 173.923 237.227 174.503 237.636C175.082 238.028 175.824 238.386 176.727 238.71C177.631 239.034 178.705 239.324 179.949 239.58L184.244 240.5C187.142 241.114 189.622 241.923 191.685 242.929C193.747 243.935 195.435 245.119 196.747 246.483C198.06 247.83 199.023 249.347 199.636 251.034C200.267 252.722 200.591 254.562 200.608 256.557C200.591 260 199.73 262.915 198.026 265.301C196.321 267.688 193.884 269.503 190.713 270.747C187.56 271.991 183.767 272.614 179.335 272.614C174.784 272.614 170.813 271.94 167.42 270.594C164.045 269.247 161.42 267.176 159.545 264.381C157.688 261.568 156.75 257.972 156.733 253.591H170.233C170.318 255.193 170.719 256.54 171.435 257.631C172.151 258.722 173.156 259.548 174.452 260.111C175.764 260.673 177.324 260.955 179.131 260.955C180.648 260.955 181.918 260.767 182.94 260.392C183.963 260.017 184.739 259.497 185.267 258.832C185.795 258.168 186.068 257.409 186.085 256.557C186.068 255.756 185.804 255.057 185.293 254.46C184.798 253.847 183.98 253.301 182.838 252.824C181.696 252.33 180.153 251.869 178.21 251.443L172.994 250.318C168.358 249.312 164.702 247.634 162.026 245.281C159.366 242.912 158.045 239.682 158.062 235.591C158.045 232.267 158.932 229.361 160.722 226.872C162.528 224.366 165.026 222.415 168.213 221.017C171.418 219.619 175.091 218.92 179.233 218.92C183.46 218.92 187.116 219.628 190.202 221.043C193.287 222.457 195.665 224.452 197.335 227.026C199.023 229.582 199.875 232.574 199.892 236H186.29Z" fill="black"/>
</svg>
