<svg width="380" height="380" viewBox="0 0 380 380" fill="none" xmlns="http://www.w3.org/2000/svg">
<path d="M90 10C77.625 10 67.5 20.125 67.5 32.5V347.5C67.5 359.875 77.625 370 90 370H315C327.375 370 337.5 359.875 337.5 347.5V100L247.5 10H90Z" fill="white"/>
<path d="M270 100H337.5L247.5 10V77.5C247.5 89.875 257.625 100 270 100Z" fill="#EEEEEE"/>
<path d="M292.5 302.5C292.5 308.688 287.438 313.75 281.25 313.75H33.75C27.5625 313.75 22.5 308.688 22.5 302.5V190C22.5 183.812 27.5625 178.75 33.75 178.75H281.25C287.438 178.75 292.5 183.812 292.5 190V302.5Z" fill="#84BD5A"/>
<path d="M293 301.75C293 307.938 287.938 313 281.75 313H34.25C28.0625 313 23 307.938 23 301.75V189.25C23 183.062 28.0625 178 34.25 178H281.75C287.938 178 293 183.062 293 189.25V301.75Z" fill="#FFE8B6"/>
<path d="M82.646 219.636H96.6573V255.534C96.6403 258.943 95.7795 261.943 94.0749 264.534C92.3874 267.108 90.0522 269.119 87.0692 270.568C84.1033 272 80.6857 272.716 76.8164 272.716C73.4585 272.716 70.3903 272.136 67.6119 270.977C64.8335 269.801 62.6175 267.96 60.9641 265.455C59.3107 262.932 58.4925 259.659 58.5096 255.636H72.7255C72.7766 256.949 72.9982 258.057 73.3903 258.96C73.7994 259.864 74.3619 260.545 75.0778 261.006C75.8107 261.449 76.6971 261.67 77.7369 261.67C78.7937 261.67 79.68 261.44 80.396 260.98C81.1289 260.52 81.6829 259.838 82.0579 258.935C82.4329 258.014 82.6289 256.881 82.646 255.534V219.636ZM131.622 236C131.485 234.295 130.846 232.966 129.704 232.011C128.579 231.057 126.866 230.58 124.565 230.58C123.099 230.58 121.897 230.759 120.96 231.116C120.039 231.457 119.358 231.926 118.914 232.523C118.471 233.119 118.241 233.801 118.224 234.568C118.19 235.199 118.301 235.77 118.556 236.281C118.829 236.776 119.255 237.227 119.835 237.636C120.414 238.028 121.156 238.386 122.059 238.71C122.963 239.034 124.037 239.324 125.281 239.58L129.576 240.5C132.474 241.114 134.954 241.923 137.017 242.929C139.079 243.935 140.767 245.119 142.079 246.483C143.392 247.83 144.355 249.347 144.968 251.034C145.599 252.722 145.923 254.562 145.94 256.557C145.923 260 145.062 262.915 143.358 265.301C141.653 267.688 139.216 269.503 136.045 270.747C132.892 271.991 129.099 272.614 124.667 272.614C120.116 272.614 116.145 271.94 112.752 270.594C109.377 269.247 106.752 267.176 104.877 264.381C103.02 261.568 102.082 257.972 102.065 253.591H115.565C115.65 255.193 116.051 256.54 116.767 257.631C117.483 258.722 118.488 259.548 119.784 260.111C121.096 260.673 122.656 260.955 124.463 260.955C125.98 260.955 127.25 260.767 128.272 260.392C129.295 260.017 130.071 259.497 130.599 258.832C131.127 258.168 131.4 257.409 131.417 256.557C131.4 255.756 131.136 255.057 130.625 254.46C130.13 253.847 129.312 253.301 128.17 252.824C127.028 252.33 125.485 251.869 123.542 251.443L118.326 250.318C113.69 249.312 110.034 247.634 107.358 245.281C104.699 242.912 103.377 239.682 103.395 235.591C103.377 232.267 104.264 229.361 106.054 226.872C107.86 224.366 110.358 222.415 113.545 221.017C116.75 219.619 120.423 218.92 124.565 218.92C128.792 218.92 132.449 219.628 135.534 221.043C138.619 222.457 140.997 224.452 142.667 227.026C144.355 229.582 145.207 232.574 145.224 236H131.622ZM202.075 245.818C202.075 251.648 200.941 256.565 198.674 260.571C196.407 264.56 193.348 267.585 189.495 269.648C185.643 271.693 181.348 272.716 176.609 272.716C171.836 272.716 167.524 271.685 163.672 269.622C159.836 267.543 156.785 264.509 154.518 260.52C152.268 256.514 151.143 251.614 151.143 245.818C151.143 239.989 152.268 235.08 154.518 231.091C156.785 227.085 159.836 224.06 163.672 222.014C167.524 219.952 171.836 218.92 176.609 218.92C181.348 218.92 185.643 219.952 189.495 222.014C193.348 224.06 196.407 227.085 198.674 231.091C200.941 235.08 202.075 239.989 202.075 245.818ZM187.45 245.818C187.45 242.682 187.032 240.04 186.197 237.892C185.379 235.727 184.16 234.091 182.541 232.983C180.939 231.858 178.961 231.295 176.609 231.295C174.257 231.295 172.271 231.858 170.652 232.983C169.049 234.091 167.831 235.727 166.995 237.892C166.177 240.04 165.768 242.682 165.768 245.818C165.768 248.955 166.177 251.605 166.995 253.77C167.831 255.918 169.049 257.554 170.652 258.679C172.271 259.787 174.257 260.341 176.609 260.341C178.961 260.341 180.939 259.787 182.541 258.679C184.16 257.554 185.379 255.918 186.197 253.77C187.032 251.605 187.45 248.955 187.45 245.818ZM253.959 219.636V272H242.096L223.175 244.489H222.868V272H208.652V219.636H220.721L239.334 247.045H239.743V219.636H253.959Z" fill="black"/>
</svg>
