<svg width="512" height="512" viewBox="0 0 512 512" fill="none" xmlns="http://www.w3.org/2000/svg">
<path d="M481.182 199.425L156.497 69.548C155.106 68.9914 153.583 68.8551 152.115 69.1561C150.648 69.4571 149.301 70.1822 148.242 71.2415C147.182 72.3008 146.457 73.6477 146.156 75.1151C145.855 76.5826 145.991 78.1062 146.548 79.4969L276.426 404.191C276.975 405.559 277.908 406.741 279.112 407.592C280.316 408.444 281.74 408.93 283.213 408.992L283.534 409C284.956 409 286.349 408.605 287.558 407.857C288.767 407.11 289.744 406.041 290.38 404.77L336.145 313.252L407.997 385.113C408.707 385.824 409.551 386.388 410.479 386.773C411.407 387.158 412.402 387.356 413.407 387.356C414.412 387.356 415.407 387.158 416.336 386.773C417.264 386.388 418.108 385.824 418.818 385.113L462.113 341.823C463.548 340.388 464.354 338.441 464.354 336.412C464.354 334.382 463.548 332.436 462.113 331.001L390.251 259.139L481.766 213.382C483.086 212.722 484.187 211.694 484.937 210.423C485.686 209.152 486.052 207.691 485.991 206.216C485.929 204.742 485.442 203.317 484.589 202.112C483.736 200.908 482.553 199.976 481.182 199.429L481.182 199.425Z" fill="black"/>
<path d="M146 413.131C126.509 413.131 108.464 406.942 93.7195 396.426L146.022 344.123L150.709 323.022L146.022 301.881L72.595 375.308C62.066 360.559 55.8698 342.503 55.8698 323C55.8698 273.223 96.2226 232.87 146 232.87H146.022L150.708 216.614L146.022 203C146.014 203 146.007 203 146 203C79.7257 203 26 256.726 26 323C26 389.274 79.7257 443 146 443C146.007 443 146.014 443 146.022 443L150.708 427.512L146.022 413.13C146.015 413.13 146.007 413.131 146 413.131V413.131Z" fill="#FF6C6C"/>
<path d="M266 323C266 256.733 212.286 203.012 146.022 203V232.87C165.517 232.875 183.564 239.07 198.308 249.595L146.022 301.881V344.123L219.425 270.72C229.943 285.464 236.13 303.509 236.13 323C236.13 372.77 195.79 413.118 146.022 413.13V443C212.286 442.988 266 389.267 266 323V323Z" fill="#FF6C6C"/>
</svg>
