<svg width="512" height="512" viewBox="0 0 512 512" fill="none" xmlns="http://www.w3.org/2000/svg">
<g id="leave1">
  <path d="M408.906 45.5361C411.169 51.7221 436.307 125.34 384.751 212.153C353.436 264.882 305.89 268.371 301.234 268.587C298.507 264.806 271.664 225.408 293.471 168.09C329.376 73.7211 402.655 47.6121 408.906 45.5361Z" fill="#80C56E"/>
  <path d="M408.906 45.5361L301.234 268.587C305.891 268.37 353.436 264.882 384.751 212.153C436.308 125.34 411.169 51.7221 408.906 45.5361Z" fill="#66AD66"/>
</g>
<g id="leave2">
  <path d="M103.094 45.5361C100.831 51.7221 75.693 125.34 127.249 212.153C158.564 264.882 206.11 268.371 210.766 268.587C213.493 264.806 240.336 225.408 218.528 168.09C182.624 73.7211 109.345 47.6121 103.094 45.5361Z" fill="#80C56E"/>
  <path d="M218.528 168.09C182.624 73.7211 109.345 47.6121 103.094 45.5361C166.764 167.146 201.107 245.042 211.028 268.218C214.849 262.756 239.774 223.93 218.528 168.09Z" fill="#66AD66"/>
</g>
<g id="leave3">
  <path d="M256 0C248.324 7.449 159.592 97.362 173.704 260.712C182.275 359.93 249.343 398.595 256 402.199C262.657 398.595 329.725 359.929 338.296 260.712C352.408 97.362 263.676 7.449 256 0Z" fill="#80C56E"/>
  <path d="M256 0V402.199C262.657 398.595 329.725 359.929 338.296 260.712C352.408 97.362 263.676 7.449 256 0Z" fill="#66AD66"/>
</g>
<g id="leave4">
  <path d="M445.966 250.043C462.661 192.664 457.01 139.334 457.01 139.334C457.01 139.334 424.859 153.656 344.061 205.869C281.256 246.454 261.824 317.612 256 336.79H329.813C383.468 336.79 430.976 301.562 445.966 250.043Z" fill="#80C56E"/>
  <path d="M457.011 139.333C457.011 139.333 373.972 303.376 256 336.79H329.813C383.469 336.79 430.976 301.562 445.967 250.043C462.661 192.664 457.011 139.333 457.011 139.333Z" fill="#66AD66"/>
</g>
<g id="leave5">
  <path d="M66.034 250.043C49.339 192.664 54.99 139.334 54.99 139.334C54.99 139.334 87.141 153.656 167.939 205.869C230.744 246.454 250.176 317.612 256 336.79H182.187C128.532 336.79 81.024 301.562 66.034 250.043Z" fill="#80C56E"/>
  <path d="M256 336.79C250.176 317.612 230.744 246.454 167.939 205.868C87.14 153.655 54.989 139.333 54.989 139.333C54.989 139.333 138.028 303.377 256 336.79Z" fill="#66AD66"/>
</g>
<g id="pot">
  <path d="M309.376 512H202.624C174.309 512 150.02 491.811 144.843 463.973L121.956 340.901H390.045L367.158 463.973C361.98 491.811 337.691 512 309.376 512Z" fill="#C9A381"/>
  <path d="M394.718 368.559H117.282C106.04 368.559 96.926 359.445 96.926 348.203C96.926 336.961 106.04 327.847 117.282 327.847H394.719C405.961 327.847 415.075 336.961 415.075 348.203C415.074 359.445 405.961 368.559 394.718 368.559Z" fill="#C19D7C"/>
</g>
</svg>
