<svg width="380" height="380" viewBox="0 0 380 380" fill="none" xmlns="http://www.w3.org/2000/svg">
<g clip-path="url(#clip0_209_40)">
<path d="M313.75 126.25H66.25C62.815 126.25 59.59 124.69 57.46 122.02C55.315 119.35 54.52 115.84 55.285 112.51L71.77 31.045C74.245 18.805 85 10 97.495 10H282.505C295 10 305.77 18.805 308.245 31.045L324.73 112.51C325.495 115.84 324.685 119.35 322.54 122.02C320.41 124.69 317.185 126.25 313.75 126.25V126.25Z" fill="#2667A7"/>
<path d="M55 190V280H325V190H55Z" fill="#5AA2DB"/>
<path d="M55 280V332.5C55 353.215 71.785 370 92.5 370H287.5C308.215 370 325 353.215 325 332.5V280H55Z" fill="#4F94CC"/>
<path d="M310 100H70C61.705 100 55 106.72 55 115V190H325V115C325 106.72 318.295 100 310 100Z" fill="#4F94CC"/>
<path d="M100 250C108.284 250 115 243.284 115 235C115 226.716 108.284 220 100 220C91.7157 220 85 226.716 85 235C85 243.284 91.7157 250 100 250Z" fill="#2667A7"/>
<path d="M196 250H151C142.705 250 136 243.28 136 235C136 226.72 142.705 220 151 220H196C204.295 220 211 226.72 211 235C211 243.28 204.295 250 196 250Z" fill="#2667A7"/>
<path d="M100 340C108.284 340 115 333.284 115 325C115 316.716 108.284 310 100 310C91.7157 310 85 316.716 85 325C85 333.284 91.7157 340 100 340Z" fill="#2667A7"/>
<path d="M196 340H151C142.705 340 136 333.28 136 325C136 316.72 142.705 310 151 310H196C204.295 310 211 316.72 211 325C211 333.28 204.295 340 196 340Z" fill="#2667A7"/>
<path d="M115 145C115 153.28 108.295 160 100 160C91.705 160 85 153.28 85 145C85 136.72 91.705 130 100 130C108.295 130 115 136.72 115 145Z" fill="#2667A7"/>
<path d="M196 160H151C142.705 160 136 153.28 136 145C136 136.72 142.705 130 151 130H196C204.295 130 211 136.72 211 145C211 153.28 204.295 160 196 160Z" fill="#2667A7"/>
</g>
<defs>
<clipPath id="clip0_209_40">
<rect width="360" height="360" fill="white" transform="translate(10 10)"/>
</clipPath>
</defs>
</svg>
